<?xml version='1.0' encoding='iso-8859-1'?>
<svg version="1.1" xmlns="http://www.w3.org/2000/svg" viewBox="0 0 70.393 70.393" xmlns:xlink="http://www.w3.org/1999/xlink" enable-background="new 0 0 70.393 70.393">
  <g>
    <path fill="#fff" d="m64.359,18.5c2.848-0.349 5.066-2.919 5.066-6.029v-6.404c0-3.345-2.569-6.067-5.728-6.067h-57c-3.16,0-5.729,2.722-5.729,6.067v6.404c0,3.11 2.22,5.681 5.068,6.029v31.22l-4.006,6.007c-0.018,0.026-0.02,0.057-0.034,0.083-0.032,0.06-0.056,0.12-0.076,0.186-0.021,0.066-0.034,0.13-0.04,0.198-0.003,0.03-0.018,0.057-0.018,0.088v13.111c0,0.552 0.447,1 1,1h17.58c0.354,0 0.681-0.187 0.86-0.491l.866-1.464h25.799l1.459,1.624c0.191,0.211 0.46,0.332 0.744,0.332h17.36c0.553,0 1-0.448 1-1v-13.112c0-0.289-0.127-0.544-0.322-0.727-0.023-0.049-0.032-0.101-0.064-0.146l-3.687-5.252c-0.029-0.042-0.072-0.065-0.106-0.101 0.001-0.012 0.007-0.021 0.007-0.033v-31.523zm-56.322,.056h2.78v8.742c0,0.552 0.447,1 1,1h2.814c0.553,0 1-0.448 1-1v-8.742h9.967l2.568,9.65c0.117,0.438 0.514,0.743 0.967,0.743h0.79c0.021,0.089 0.039,0.18 0.087,0.263l1.191,2.085c0.178,0.312 0.51,0.504 0.868,0.504h0.713v1.534c0,0.552 0.447,1 1,1 0.553,0 1-0.448 1-1v-1.534h0.83v1.534c0,0.552 0.447,1 1,1 0.553,0 1-0.448 1-1v-1.534h1.166c0.379,0 0.726-0.214 0.895-0.554l1.039-2.085c0.034-0.069 0.04-0.142 0.058-0.213h1.172c0.478,0 0.889-0.337 0.98-0.806l1.899-9.587h7.171c-0.038,0.177-0.062,0.359-0.062,0.547 0,1.415 1.15,2.565 2.563,2.565h0.979v4.663c0,0.188 0.065,0.353 0.155,0.503l1.5,4.038c-0.002,0.027-0.016,0.05-0.016,0.078v4.586h-0.59c-0.553,0-1,0.448-1,1v3.65c0,0.552 0.447,1 1,1h3.699c0.553,0 1-0.448 1-1v-3.65c0-0.552-0.447-1-1-1h-0.151v-4.586c0-0.21-0.079-0.394-0.189-0.554-0.011-0.053-0.007-0.107-0.025-0.158l-1.434-3.86c0.001-0.017 0.01-0.031 0.01-0.047v-4.663h0.979c1.413,0 2.563-1.15 2.563-2.565 0-0.188-0.023-0.371-0.062-0.547h0.444v30.467h-54.318v-30.467zm5.595,.504v7.238h-0.814v-7.238h0.814zm19.019,10.741l-.486-.852h6.421l-.425,.852h-5.51zm-2.748-2.852l-2.119-7.963h14.914l-1.576,7.963h-11.219zm29.589-8.393c0.271,0.04 0.484,0.265 0.484,0.547 0,0.312-0.253,0.565-0.563,0.565h-4.918c-0.311,0-0.563-0.253-0.563-0.565 0-0.282 0.213-0.507 0.484-0.547h5.076zm-1.967,18.981h1.699v1.65h-1.699v-1.65zm-54.556-25.066v-6.404c-3.55271e-15-2.243 1.673-4.067 3.729-4.067h57c2.056,0 3.729,1.824 3.729,4.067v6.404c0,2.244-1.673,4.069-3.729,4.069h-0.338c-0.028,0-0.052,0.014-0.08,0.016h-3.707c-0.054-0.003-0.104-0.016-0.159-0.016h-4.918c-0.055,0-0.105,0.013-0.159,0.016h-47.2c-0.003,0-0.006,0.002-0.01,0.002-0.03-0.003-0.058-0.018-0.089-0.018h-0.34c-2.056,3.55271e-15-3.729-1.826-3.729-4.069zm63.563,55.922h-15.915l-1.459-1.624c-0.19-0.211-0.46-0.332-0.744-0.332h-26.814c-0.354,0-0.681,0.187-0.86,0.491l-.866,1.464h-16.01v-11.11h62.669v11.111zm-.919-13.111h-60.881l2.84-4.259h55.126c0.03,0.098 0.062,0.195 0.124,0.283l2.791,3.976z"/>
    <path fill="#fff" d="m32.405,45.372h-10.73c-0.553,0-1,0.448-1,1 0,0.552 0.447,1 1,1h10.729c0.553,0 1-0.448 1-1 0.001-0.552-0.447-1-0.999-1z"/>
    <path fill="#fff" d="m32.405,42.802h-10.73c-0.553,0-1,0.448-1,1 0,0.552 0.447,1 1,1h10.729c0.553,0 1-0.448 1-1 0.001-0.552-0.447-1-0.999-1z"/>
    <path fill="#fff" d="m32.405,40.12h-10.73c-0.553,0-1,0.448-1,1 0,0.552 0.447,1 1,1h10.729c0.553,0 1-0.448 1-1 0.001-0.553-0.447-1-0.999-1z"/>
    <path fill="#fff" d="m48.72,45.372h-10.729c-0.553,0-1,0.448-1,1 0,0.552 0.447,1 1,1h10.729c0.553,0 1-0.448 1-1 0-0.552-0.447-1-1-1z"/>
    <path fill="#fff" d="m48.72,42.802h-10.729c-0.553,0-1,0.448-1,1 0,0.552 0.447,1 1,1h10.729c0.553,0 1-0.448 1-1 0-0.552-0.447-1-1-1z"/>
    <path fill="#fff" d="m48.72,40.12h-10.729c-0.553,0-1,0.448-1,1 0,0.552 0.447,1 1,1h10.729c0.553,0 1-0.448 1-1 0-0.553-0.447-1-1-1z"/>
    <path fill="#fff" d="m53.243,13.101h7.451c0.553,0 1-0.448 1-1v-5.068c0-0.552-0.447-1-1-1h-7.451c-0.553,0-1,0.448-1,1v5.067c0,0.553 0.448,1.001 1,1.001zm1-5.068h5.451v3.067h-5.451v-3.067z"/>
    <path fill="#fff" d="m10.032,13.101h7.45c0.553,0 1-0.448 1-1v-5.068c0-0.552-0.447-1-1-1h-7.45c-0.553,0-1,0.448-1,1v5.067c0,0.553 0.448,1.001 1,1.001zm1-5.068h5.45v3.067h-5.45v-3.067z"/>
    <path fill="#fff" d="m25.636,14.368c2.524,0 4.576-2.053 4.576-4.576s-2.053-4.577-4.576-4.577c-2.523,0-4.576,2.053-4.576,4.577s2.053,4.576 4.576,4.576zm0-7.153c1.421,0 2.576,1.156 2.576,2.577 0,1.42-1.155,2.576-2.576,2.576s-2.576-1.156-2.576-2.576c0-1.421 1.155-2.577 2.576-2.577z"/>
    <path fill="#fff" d="m35.198,14.368c2.523,0 4.575-2.053 4.575-4.576s-2.053-4.577-4.575-4.577c-2.523,0-4.577,2.053-4.577,4.577s2.054,4.576 4.577,4.576zm0-7.153c1.42,0 2.575,1.156 2.575,2.577 0,1.42-1.155,2.576-2.575,2.576-1.421,0-2.577-1.156-2.577-2.576 0-1.421 1.157-2.577 2.577-2.577z"/>
    <path fill="#fff" d="m44.758,14.368c2.523,0 4.577-2.053 4.577-4.576s-2.054-4.577-4.577-4.577-4.576,2.053-4.576,4.577 2.053,4.576 4.576,4.576zm0-7.153c1.421,0 2.577,1.156 2.577,2.577 0,1.42-1.156,2.576-2.577,2.576-1.421,0-2.576-1.156-2.576-2.576 0-1.421 1.155-2.577 2.576-2.577z"/>
  </g>
</svg>
