<?xml version="1.0" encoding="iso-8859-1"?>
<!-- Generator: Adobe Illustrator 19.0.0, SVG Export Plug-In . SVG Version: 6.00 Build 0)  -->
<svg version="1.1" id="Capa_1" xmlns="http://www.w3.org/2000/svg" xmlns:xlink="http://www.w3.org/1999/xlink" x="0px" y="0px"
	 viewBox="0 0 496 496" style="enable-background:new 0 0 496 496;" xml:space="preserve">
<g>
	<g>
		<g>
			<rect x="32" y="384" width="64" height="16"/>
			<rect x="80" y="416" width="16" height="16"/>
			<rect x="32" y="416" width="32" height="16"/>
			<path d="M64,256c17.648,0,32-14.352,32-32s-14.352-32-32-32s-32,14.352-32,32S46.352,256,64,256z M64,208c8.824,0,16,7.176,16,16
				c0,8.824-7.176,16-16,16s-16-7.176-16-16C48,215.176,55.176,208,64,208z"/>
			<path d="M472,0h-80c-13.232,0-24,10.768-24,24v40.224c-61.192,2.312-98.968,30.512-116.336,47.656
				c-1.376,1.36-2.52,2.896-3.664,4.416c-1.144-1.52-2.288-3.056-3.664-4.416C226.968,94.744,189.192,66.544,128,64.224V24
				c0-13.232-10.768-24-24-24H24C10.768,0,0,10.768,0,24v472h128V299.04l118-132.744c0.752-0.848,1.328-1.816,2-2.72
				c0.672,0.904,1.248,1.872,2,2.72L368,299.04V496h128V24C496,10.768,485.232,0,472,0z M112,480H16v-16h96V480z M112,448H16V48h96
				V448z M112,32H16v-8c0-4.416,3.592-8,8-8h80c4.408,0,8,3.584,8,8V32z M234.032,155.672L128,274.96V80.224
				c55.464,2.272,89.464,27.616,105.096,43.048c4.448,4.4,6.904,10.328,6.904,16.712C240,145.776,237.88,151.344,234.032,155.672z
				 M368,274.96L261.968,155.672c-3.848-4.328-5.968-9.896-5.968-15.688c0-6.384,2.456-12.312,6.904-16.712
				C278.536,107.84,312.528,82.496,368,80.224V274.96z M480,448h-16v16h16v16h-96v-16h64v-16h-64V48h96V448z M480,32h-96v-8
				c0-4.416,3.592-8,8-8h80c4.408,0,8,3.584,8,8V32z"/>
			<rect x="400" y="384" width="64" height="16"/>
			<rect x="400" y="416" width="32" height="16"/>
			<rect x="448" y="416" width="16" height="16"/>
			<path d="M432,256c17.648,0,32-14.352,32-32s-14.352-32-32-32s-32,14.352-32,32S414.352,256,432,256z M432,208
				c8.824,0,16,7.176,16,16c0,8.824-7.176,16-16,16c-8.824,0-16-7.176-16-16C416,215.176,423.176,208,432,208z"/>
		</g>
	</g>
</g>
<g>
</g>
<g>
</g>
<g>
</g>
<g>
</g>
<g>
</g>
<g>
</g>
<g>
</g>
<g>
</g>
<g>
</g>
<g>
</g>
<g>
</g>
<g>
</g>
<g>
</g>
<g>
</g>
<g>
</g>
</svg>
