<?xml version="1.0" encoding="iso-8859-1"?>
<!-- Generator: Adobe Illustrator 19.0.0, SVG Export Plug-In . SVG Version: 6.00 Build 0)  -->
<svg version="1.1" id="Capa_1" xmlns="http://www.w3.org/2000/svg" xmlns:xlink="http://www.w3.org/1999/xlink" x="0px" y="0px"
	 viewBox="0 0 512.005 512.005" style="enable-background:new 0 0 512.005 512.005;" xml:space="preserve">
<g>
	<g>
		<g>
			<path fill="#3d87c0" d="M478.755,213.333H331.917c-18.006-0.315-32.875,13.995-33.248,32V480c0.373,18.005,15.242,32.315,33.248,32h146.837
				c18.006,0.315,32.875-13.995,33.248-32V245.333C511.629,227.328,496.761,213.018,478.755,213.333z M478.755,490.667H331.917
				c-6.227,0.321-11.548-4.442-11.915-10.667V277.333h149.333V256H320.003v-10.667c0.367-6.225,5.687-10.988,11.915-10.667h146.837
				c6.227-0.321,11.548,4.442,11.915,10.667V448H341.336v21.333h149.333V480C490.302,486.225,484.982,490.988,478.755,490.667z"/>
			<path fill="#3d87c0" d="M405.336,416c29.441-0.035,53.298-23.893,53.333-53.333c0-29.455-23.878-53.333-53.333-53.333
				s-53.333,23.878-53.333,53.333S375.881,416,405.336,416z M405.336,330.667c17.673,0,32,14.327,32,32s-14.327,32-32,32
				s-32-14.327-32-32S387.663,330.667,405.336,330.667z"/>
			<path fill="#3d87c0" d="M21.336,480V32c0-5.891,4.776-10.667,10.667-10.667h362.667c5.891,0,10.667,4.776,10.667,10.667v160h21.333V32
				c0-17.673-14.327-32-32-32H32.003c-17.673,0-32,14.327-32,32v448c0,17.673,14.327,32,32,32h245.333v-21.333H32.003
				C26.112,490.667,21.336,485.891,21.336,480z"/>
			<path fill="#3d87c0" d="M64.003,53.333c-5.891,0-10.667,4.776-10.667,10.667v320c0,5.891,4.776,10.667,10.667,10.667h160
				c5.891,0,10.667-4.776,10.667-10.667V64c0-5.891-4.776-10.667-10.667-10.667H64.003z M213.336,176.913L111.09,74.667h102.246
				V176.913z M80.92,74.667l132.416,132.416v55.157l-67.121-67.121l-15.085,15.085l82.206,82.206v55.172L74.669,208.915V74.667
				H80.92z M74.669,239.085l134.248,134.248H74.669V239.085z"/>
			<path fill="#3d87c0" d="M352.003,192h21.333V64c0-5.891-4.776-10.667-10.667-10.667h-85.333c-5.891,0-10.667,4.776-10.667,10.667v128h21.333
				V74.667h64V192z"/>
			<rect fill="#3d87c0" x="309.336" y="96" width="21.333" height="21.333"/>
			<rect fill="#3d87c0" x="309.336" y="138.667" width="21.333" height="21.333"/>
			<path fill="#3d87c0" d="M266.669,416H64.003c-5.891,0-10.667,4.776-10.667,10.667v32c0,5.891,4.776,10.667,10.667,10.667h202.667
				c5.891,0,10.667-4.776,10.667-10.667v-32C277.336,420.776,272.56,416,266.669,416z M256.003,448H74.669v-10.667h181.333V448z"/>
		</g>
	</g>
</g>
</svg>
