<?xml version="1.0" encoding="iso-8859-1"?>
<!-- Generator: Adobe Illustrator 19.0.0, SVG Export Plug-In . SVG Version: 6.00 Build 0)  -->
<svg version="1.1" id="Capa_1" xmlns="http://www.w3.org/2000/svg" xmlns:xlink="http://www.w3.org/1999/xlink" x="0px" y="0px"
	 viewBox="0 0 480 480" style="enable-background:new 0 0 480 480;" xml:space="preserve">
<g>
	<g>
		<path d="M440,0H40C17.944,0,0,17.944,0,40v400c0,22.056,17.944,40,40,40h400c22.056,0,40-17.944,40-40V40
			C480,17.944,462.056,0,440,0z M464,440c0,13.232-10.768,24-24,24H40c-13.232,0-24-10.768-24-24V40c0-13.232,10.768-24,24-24h400
			c13.232,0,24,10.768,24,24V440z"/>
	</g>
</g>
<g>
	<g>
		<path d="M432,152h-64c-4.416,0-8,3.584-8,8v128c0,4.416,3.584,8,8,8h64c4.416,0,8-3.584,8-8V160C440,155.584,436.416,152,432,152z
			 M424,280h-48V168h48V280z"/>
	</g>
</g>
<g>
	<g>
		<rect x="392" y="184" width="16" height="16"/>
	</g>
</g>
<g>
	<g>
		<rect x="392" y="216" width="16" height="16"/>
	</g>
</g>
<g>
	<g>
		<rect x="392" y="248" width="16" height="16"/>
	</g>
</g>
<g>
	<g>
		<path d="M328,32H40c-4.416,0-8,3.584-8,8v80v80v80v80c0,4.416,3.584,8,8,8h32h32h32h32h32h32h32h32h32c4.416,0,8-3.584,8-8v-80
			v-80v-80V40C336,35.584,332.416,32,328,32z M96,352H80v-32h16V352z M160,352h-16v-32h16V352z M224,352h-16v-32h16V352z M288,352
			h-16v-32h16V352z M320,352h-16v-40c0-4.416-3.584-8-8-8h-32c-4.416,0-8,3.584-8,8v40h-16v-40c0-4.416-3.584-8-8-8h-32
			c-4.416,0-8,3.584-8,8v40h-16v-40c0-4.416-3.584-8-8-8h-32c-4.416,0-8,3.584-8,8v40h-16v-40c0-4.416-3.584-8-8-8H72
			c-4.416,0-8,3.584-8,8v40H48v-64h24h32h32h32h32h32h32h32h24V352z M80,272v-32h16v32H80z M144,272v-32h16v32H144z M208,272v-32h16
			v32H208z M272,272v-32h16v32H272z M320,272h-16v-40c0-4.416-3.584-8-8-8h-32c-4.416,0-8,3.584-8,8v40h-16v-40c0-4.416-3.584-8-8-8
			h-32c-4.416,0-8,3.584-8,8v40h-16v-40c0-4.416-3.584-8-8-8h-32c-4.416,0-8,3.584-8,8v40h-16v-40c0-4.416-3.584-8-8-8H72
			c-4.416,0-8,3.584-8,8v40H48v-64h24h32h32h32h32h32h32h32h24V272z M80,192v-32h16v32H80z M144,192v-32h16v32H144z M208,192v-32h16
			v32H208z M272,192v-32h16v32H272z M320,192h-16v-40c0-4.416-3.584-8-8-8h-32c-4.416,0-8,3.584-8,8v40h-16v-40c0-4.416-3.584-8-8-8
			h-32c-4.416,0-8,3.584-8,8v40h-16v-40c0-4.416-3.584-8-8-8h-32c-4.416,0-8,3.584-8,8v40h-16v-40c0-4.416-3.584-8-8-8H72
			c-4.416,0-8,3.584-8,8v40H48v-64h24h32h32h32h32h32h32h32h24V192z M80,112V80h16v32H80z M144,112V80h16v32H144z M208,112V80h16v32
			H208z M272,112V80h16v32H272z M320,112h-16V72c0-4.416-3.584-8-8-8h-32c-4.416,0-8,3.584-8,8v40h-16V72c0-4.416-3.584-8-8-8h-32
			c-4.416,0-8,3.584-8,8v40h-16V72c0-4.416-3.584-8-8-8h-32c-4.416,0-8,3.584-8,8v40h-16V72c0-4.416-3.584-8-8-8H72
			c-4.416,0-8,3.584-8,8v40H48V48h272V112z"/>
	</g>
</g>
<g>
	<g>
		<path d="M400,32c-26.472,0-48,21.528-48,48s21.528,48,48,48s48-21.528,48-48S426.472,32,400,32z M400,112
			c-17.648,0-32-14.352-32-32s14.352-32,32-32s32,14.352,32,32S417.648,112,400,112z"/>
	</g>
</g>
<g>
	<g>
		<rect x="384" y="72" width="32" height="16"/>
	</g>
</g>
<g>
	<g>
		<path d="M296,384H72c-4.416,0-8,3.584-8,8v48c0,4.416,3.584,8,8,8h224c4.416,0,8-3.584,8-8v-48C304,387.584,300.416,384,296,384z
			 M288,432H80v-32h208V432z"/>
	</g>
</g>
<g>
	<g>
		<path d="M432,320h-64c-4.416,0-8,3.584-8,8v32c0,4.416,3.584,8,8,8h64c4.416,0,8-3.584,8-8v-32C440,323.584,436.416,320,432,320z
			 M424,352h-48v-16h48V352z"/>
	</g>
</g>
<g>
</g>
<g>
</g>
<g>
</g>
<g>
</g>
<g>
</g>
<g>
</g>
<g>
</g>
<g>
</g>
<g>
</g>
<g>
</g>
<g>
</g>
<g>
</g>
<g>
</g>
<g>
</g>
<g>
</g>
</svg>
