<?xml version="1.0" encoding="iso-8859-1"?>
<!-- Generator: Adobe Illustrator 19.0.0, SVG Export Plug-In . SVG Version: 6.00 Build 0)  -->
<svg version="1.1" id="Layer_1" xmlns="http://www.w3.org/2000/svg" xmlns:xlink="http://www.w3.org/1999/xlink" x="0px" y="0px"
	 viewBox="0 0 290.626 290.626" style="enable-background:new 0 0 290.626 290.626;" xml:space="preserve">
<g>
	<g>
		<g>
			<path d="M234.375,281.251L234.375,281.251v-14.064h4.688V103.125c23.264,0,42.188-18.928,42.188-42.188
				S262.328,18.75,239.063,18.75V0H9.375v267.188h4.688v14.063H0v9.375h14.063H37.5h253.125v-9.375H234.375z M271.875,60.938
				c0,18.094-14.723,32.813-32.813,32.813s-32.812-14.72-32.812-32.813s14.723-32.813,32.813-32.813
				C257.154,28.125,271.875,42.844,271.875,60.938z M210.938,92.293v1.458h-18.75V28.125h18.75v1.458
				c-8.606,7.73-14.063,18.905-14.063,31.355S202.331,84.563,210.938,92.293z M28.126,281.25h-4.688v-14.063h4.688V281.25z
				 M210.938,281.251H37.5v-14.063h173.438V281.251z M225,281.25h-4.688v-14.063H225V281.25z M229.688,257.813H18.75V9.375h210.938
				v10.463c-3.291,0.75-6.427,1.894-9.375,3.366V18.75h-37.5v84.375h37.5v-4.453c2.948,1.472,6.084,2.616,9.375,3.366V257.813z"/>
			<path d="M28.125,182.813H168.75V18.75H28.125V182.813z M37.5,28.125h121.875v42.188H37.5V28.125z M37.5,121.875V79.688h121.875
				v42.188L37.5,121.875L37.5,121.875z M37.5,131.25h121.875v42.188H37.5V131.25z"/>
			<path d="M182.813,182.813h37.5v-65.625h-37.5V182.813z M192.188,126.563h18.75v46.875h-18.75V126.563z"/>
			<rect x="46.875" y="37.5" width="9.375" height="23.438"/>
			<rect x="65.625" y="37.5" width="9.375" height="23.438"/>
			<rect x="84.375" y="37.5" width="9.375" height="23.438"/>
			<rect x="103.125" y="37.5" width="9.375" height="23.438"/>
			<rect x="121.875" y="37.5" width="9.375" height="23.438"/>
			<rect x="140.625" y="37.5" width="9.375" height="23.438"/>
			<path d="M65.625,248.438h65.625v-51.563H65.625V248.438z M75,206.25h46.875v32.813H75V206.25z"/>
			<rect x="84.375" y="225" width="28.125" height="9.375"/>
			<rect x="46.875" y="89.063" width="9.375" height="23.438"/>
			<rect x="65.625" y="89.063" width="9.375" height="23.438"/>
			<rect x="84.375" y="89.063" width="9.375" height="23.438"/>
			<rect x="103.125" y="89.063" width="9.375" height="23.438"/>
			<rect x="121.875" y="89.063" width="9.375" height="23.438"/>
			<rect x="140.625" y="89.063" width="9.375" height="23.438"/>
			<rect x="46.875" y="140.625" width="9.375" height="23.438"/>
			<rect x="65.625" y="140.625" width="9.375" height="23.438"/>
			<rect x="84.375" y="140.625" width="9.375" height="23.438"/>
			<rect x="103.125" y="140.625" width="9.375" height="23.438"/>
			<rect x="121.875" y="140.625" width="9.375" height="23.438"/>
			<rect x="140.625" y="140.625" width="9.375" height="23.438"/>
			<circle cx="201.563" cy="135.938" r="4.688"/>
			<circle cx="201.563" cy="150" r="4.688"/>
			<circle cx="201.563" cy="164.063" r="4.688"/>
			<path d="M243.75,75h-9.375c-2.587,0-4.688-2.105-4.688-4.688h-9.375c0,7.753,6.309,14.063,14.063,14.063v4.688h9.375v-4.688
				c7.753,0,14.063-6.309,14.063-14.063c0-7.754-6.31-14.062-14.063-14.062h-9.375c-2.587,0-4.688-2.105-4.688-4.688
				s2.1-4.688,4.688-4.688h9.375c2.587,0,4.688,2.105,4.688,4.688h9.375c0-7.753-6.309-14.063-14.063-14.063v-4.688h-9.375v0.002
				V37.5c-7.753,0-14.063,6.309-14.063,14.063c0,7.754,6.309,14.063,14.063,14.063h9.375c2.587,0,4.688,2.105,4.688,4.688
				C248.438,72.897,246.338,75,243.75,75z"/>
		</g>
	</g>
</g>
<g>
</g>
<g>
</g>
<g>
</g>
<g>
</g>
<g>
</g>
<g>
</g>
<g>
</g>
<g>
</g>
<g>
</g>
<g>
</g>
<g>
</g>
<g>
</g>
<g>
</g>
<g>
</g>
<g>
</g>
</svg>
